# xmcd CD database file
#
# Track frame offsets:
#	182
#	12117
#	26720
#	40367
#	56827
#	72452
#	86807
#	101787
#	115732
#	131892
#	148205
#	161602
#	177585
#	192847
#	213560
#	231005
#	243122
#	257907
#	276350
#	289355
#
# Disc length: 4044 seconds
#
# Revision: 1
# Processed by: cddbd v1.5.2PL0 Copyright (c) Steve Scherf et al.
# Submitted via: CDex 1.51
#
DISCID=3e0fca14
DTITLE=Lennie Niehaus and Stan Kenton - Vol. 268 - Quintet and Octet
DYEAR=1996
DGENRE=Jazz
TTITLE0=I Remember You (V.Schertzinger-J.Mercer)
TTITLE1=Bottoms Up (L.Niehaus)
TTITLE2=I'll Take Romance (B.Oakland-O.Hammerstein II)
TTITLE3=Day By Day (P.G.Smith-F.Skinner)
TTITLE4=Blue Room (R.Rodgers-L.Hart)
TTITLE5=They Say It's Wonderful (I.Berlin)
TTITLE6=My Heart Stood Still (R.Rodgers-L.Hart)
TTITLE7=Star Eyes (Raye-De Paul)
TTITLE8=Just One Of Those Things (C.Porter)
TTITLE9=Lens (L.Niehaus)
TTITLE10=Inside Out (L.Niehaus)
TTITLE11=I Can't Believe That You're In Love With Me (J.Mchugh-C.Gaskill)
TTITLE12=Whose Blues (L.Niehaus)
TTITLE13=More Than The Blues (L.Niehaus)
TTITLE14=Poinciana (N.Simon-B.Bernier-M.Lliso)
TTITLE15=You Stepped Out Of A Dream (N.H.Brown-G.Kahn)
TTITLE16=I Should Care (A.Stordahl-P.Weston-S.Cahn)
TTITLE17=Rose Room (H.Williams-A.Hickman)
TTITLE18=Nice Work If You Can Get It (G.& I.Gershwin)
TTITLE19=Cherokee (Noble)
EXTD=YEAR: 1996
EXTT0=
EXTT1=
EXTT2=
EXTT3=
EXTT4=
EXTT5=
EXTT6=
EXTT7=
EXTT8=
EXTT9=
EXTT10=
EXTT11=
EXTT12=
EXTT13=
EXTT14=
EXTT15=
EXTT16=
EXTT17=
EXTT18=
EXTT19=
PLAYORDER=
